<?xml version="1.0" encoding="utf-8"?>
<!-- Generator: Adobe Illustrator 21.1.0, SVG Export Plug-In . SVG Version: 6.00 Build 0)  -->
<svg version="1.1" id="Calque_1" xmlns="http://www.w3.org/2000/svg" xmlns:xlink="http://www.w3.org/1999/xlink" x="0px" y="0px"
	 viewBox="0 0 94.3 94.3" style="enable-background:new 0 0 94.3 94.3;" xml:space="preserve">
<style type="text/css">
	.st0{fill:#EB963E;}
	.st1{fill:#E6953E;stroke:#E58E3D;stroke-miterlimit:10;}
</style>
<g>
	<path class="st0" d="M56.6,21.3l6.7-18.5c-2.6-0.9-5.2-1.6-7.9-2.1L52,20.1C53.5,20.4,55.1,20.8,56.6,21.3z"/>
	<path class="st1" d="M74.6,47.2L74.6,47.2c0,15.2-12.3,27.5-27.5,27.5S19.6,62.4,19.6,47.2C19.7,32,32,19.7,47.2,19.7V0
		C21.1,0,0,21.1,0,47.2c0,26,21.1,47.2,47.2,47.2s47.2-21.1,47.2-47.2l0,0H74.6z"/>
	<path class="st0" d="M64.8,26.1L77.5,11c-2.1-1.8-4.3-3.3-6.7-4.7l-9.8,17C62.3,24.2,63.6,25.1,64.8,26.1z"/>
	<path class="st0" d="M74.2,42.4L93.6,39c-0.5-2.7-1.2-5.4-2.1-7.9L73,37.7C73.5,39.2,73.9,40.8,74.2,42.4z"/>
	<path class="st0" d="M71,33.4l17-9.8c-1.4-2.4-3-4.6-4.7-6.7L68.2,29.5C69.2,30.7,70.1,32,71,33.4z"/>
</g>
</svg>
