<?xml version="1.0" encoding="utf-8"?>
<!-- Generator: Adobe Illustrator 21.1.0, SVG Export Plug-In . SVG Version: 6.00 Build 0)  -->
<svg version="1.1" id="Calque_1" xmlns="http://www.w3.org/2000/svg" xmlns:xlink="http://www.w3.org/1999/xlink" x="0px" y="0px"
	 viewBox="0 0 76.4 76.2" style="enable-background:new 0 0 76.4 76.2;" xml:space="preserve">
<path d="M4.1,51.1c-0.2,0.1-0.4,0.1-0.6,0.1c-0.8,0-1.5-0.5-1.8-1.3c-0.3-1,0.2-2.1,1.2-2.4s2.1,0.2,2.4,1.2l0,0
	C5.6,49.7,5.1,50.7,4.1,51.1z M5.6,54.6c-0.9,0.5-1.2,1.7-0.7,2.6c0.3,0.6,1,0.9,1.6,0.9c0.3,0,0.6-0.1,0.9-0.3
	c0.9-0.5,1.2-1.7,0.7-2.6C7.7,54.4,6.5,54,5.6,54.6z M11,15.5c0.5,0,1-0.2,1.4-0.6c0.7-0.8,0.6-2-0.1-2.7c-0.8-0.7-2-0.6-2.7,0.1
	c-0.7,0.8-0.6,2,0.1,2.7C10.1,15.4,10.6,15.5,11,15.5z M2.1,43.7c1-0.1,1.8-1,1.7-2.1c-0.1-1-1-1.8-2.1-1.7c-1,0.1-1.8,1-1.7,2.1
	c0.1,1,0.9,1.7,1.9,1.7C2,43.7,2,43.7,2.1,43.7z M1.7,36.1c0.1,0,0.1,0,0.2,0c1,0,1.8-0.7,1.9-1.7c0.1-1-0.6-2-1.7-2.1
	c-1-0.1-2,0.6-2.1,1.7l0,0C-0.1,35.1,0.7,36,1.7,36.1z M30.5,4.3c0.1,0,0.3,0,0.4,0c1-0.2,1.7-1.2,1.5-2.2s-1.2-1.7-2.2-1.5
	s-1.7,1.2-1.5,2.2C28.8,3.7,29.6,4.3,30.5,4.3z M5.6,21.4c0.3,0.2,0.6,0.3,0.9,0.3c0.7,0,1.3-0.3,1.6-0.9c0.5-0.9,0.2-2.1-0.7-2.6
	S5.3,18,4.8,18.9l0,0C4.4,19.8,4.7,20.9,5.6,21.4z M9.8,61C9,61.7,9,62.9,9.7,63.7c0.4,0.4,0.9,0.6,1.4,0.6c0.4,0,0.9-0.2,1.3-0.5
	c0.8-0.7,0.8-1.9,0.1-2.7S10.6,60.3,9.8,61z M2.9,28.6c0.2,0.1,0.4,0.1,0.6,0.1c0.8,0,1.5-0.5,1.8-1.3c0.3-1-0.2-2.1-1.2-2.4
	c-1-0.3-2.1,0.2-2.4,1.2C1.3,27.2,1.9,28.2,2.9,28.6z M30.9,71.8c-1-0.2-2,0.4-2.2,1.5c-0.2,1,0.4,2,1.5,2.2c0.1,0,0.3,0,0.4,0
	c0.9,0,1.7-0.6,1.8-1.5C32.6,73,31.9,72,30.9,71.8z M24.1,69.5c-1-0.4-2.1,0-2.5,1c-0.4,0.9,0,2.1,1,2.5c0.3,0.1,0.5,0.2,0.8,0.2
	c0.7,0,1.4-0.4,1.7-1.1C25.4,71.1,25,70,24.1,69.5z M23.3,6.6c0.3,0,0.5-0.1,0.8-0.2c1-0.4,1.4-1.5,1-2.5s-1.5-1.4-2.5-1
	s-1.4,1.5-1,2.5C21.9,6.2,22.5,6.6,23.3,6.6z M17.8,65.9c-0.8-0.6-2-0.4-2.6,0.4s-0.4,2,0.4,2.6c0.3,0.2,0.7,0.4,1.1,0.4
	c0.6,0,1.2-0.3,1.5-0.8C18.9,67.7,18.7,66.5,17.8,65.9z M16.7,10.5c0.4,0,0.8-0.1,1.1-0.4c0.8-0.6,1-1.8,0.4-2.6s-1.8-1-2.6-0.4
	c-0.8,0.6-1,1.8-0.4,2.6C15.5,10.2,16.1,10.5,16.7,10.5z M76.4,38c0-21.1-17.2-38.3-38.3-38.3c-0.4,0-0.7,0.1-1,0.3c0,0,0,0-0.1,0
	c-0.5,0.3-0.8,0.9-0.8,1.6c0,1,0.8,1.9,1.9,1.9c19,0,34.5,15.5,34.5,34.5S57.1,72.5,38.1,72.5c-1,0-1.9,0.8-1.9,1.9
	c0,0.5,0.2,0.9,0.5,1.2l0.1,0.1c0.1,0.1,0.3,0.2,0.5,0.3c0,0,0.1,0,0.1,0.1c0.1,0,0.2,0,0.2,0.1h0.1c0.1,0,0.3,0,0.4,0l0,0
	C59.2,76.3,76.4,59.1,76.4,38z M46.4,38c0-1-0.8-1.9-1.9-1.9c-1,0-1.9,0.8-1.9,1.9c0,1,0.8,1.9,1.9,1.9S46.4,39,46.4,38z M31.3,38
	c0-1-0.8-1.9-1.9-1.9c-1,0-1.9,0.8-1.9,1.9c0,1,0.8,1.9,1.9,1.9S31.3,39,31.3,38z M38.9,38c0-1-0.8-1.9-1.9-1.9
	c-1,0-1.9,0.8-1.9,1.9c0,1,0.8,1.9,1.9,1.9C38,39.9,38.9,39,38.9,38z"/>
</svg>
