<?xml version="1.0" encoding="utf-8"?>
<!-- Generator: Adobe Illustrator 21.1.0, SVG Export Plug-In . SVG Version: 6.00 Build 0)  -->
<svg version="1.1" id="Calque_1" xmlns="http://www.w3.org/2000/svg" xmlns:xlink="http://www.w3.org/1999/xlink" x="0px" y="0px"
	 viewBox="0 0 58.2 46.6" style="enable-background:new 0 0 58.2 46.6;" xml:space="preserve">
<style type="text/css">
	.st0{fill:#55AB57;}
	.st1{enable-background:new    ;}
</style>
<path class="st0" d="M790-14.5c0-0.8-0.3-1.5-0.8-2c-1.1-1.1-3-1.1-4.1,0l-39.3,39.3c-0.5,0.1-0.9,0.3-1.3,0.6l-4.8,4.8l-4.6,1
	c-0.4,0.1-0.6,0.3-0.7,0.7l0,0l-25.2,6.9c-0.3,0.1-0.4,0.3-0.3,0.6c0.1,0.2,0.3,0.4,0.5,0.4h0.1l25.2-6.9l0.6,0.6l-21.6,9.7
	c-0.2,0.1-0.3,0.4-0.2,0.6c0.1,0.2,0.2,0.3,0.4,0.3c0.1,0,0.1,0,0.2-0.1l21.9-9.9l0.7,0.7l-18.6,12.7c-0.2,0.1-0.2,0.4-0.1,0.6
	c0.1,0.1,0.2,0.2,0.4,0.2c0.1,0,0.2-0.1,0.2-0.1l18.7-12.8l0.7,0.7l-15.5,15.6c-0.2,0.2-0.2,0.4,0,0.6c0.1,0.1,0.2,0.2,0.3,0.2
	s0.3-0.1,0.3-0.2l15.5-15.6l0.7,0.7L726.9,54c-0.1,0.2-0.1,0.5,0.1,0.6c0,0.1,0.1,0.1,0.2,0.1c0.2,0,0.3-0.1,0.4-0.3l12.3-18.5
	l0.7,0.7l-9.3,21.6c-0.1,0.2,0,0.5,0.2,0.6c0,0,0.1,0.1,0.2,0.1c0.2,0,0.4-0.1,0.4-0.3l9.2-21.3l0.6,0.6l0,0l-6.2,24.7
	c-0.1,0.3,0.1,0.5,0.4,0.6h0.1c0.2,0,0.4-0.2,0.5-0.4l6.2-24.7l0,0c0.4-0.1,0.6-0.4,0.7-0.7l1-4.6l4.8-4.8c0.4-0.4,0.6-0.8,0.7-1.3
	l39.3-39.3C789.7-13,790-13.7,790-14.5z M742.9,31.6c-0.1,0-0.1,0.1-0.2,0.2c-0.1,0.1-0.2,0.3-0.3,0.5l-0.7,3.1l-4.6-4.6l3.1-0.7
	c0.2,0,0.3-0.1,0.4-0.2l0.1-0.1l0.1-0.1l4.8-4.8c0.1-0.1,0.1-0.1,0.1-0.1h0.1c0.1,0,0.2,0,0.2,0.1l1.4,1.4c0.1,0.1,0.1,0.1,0.1,0.2
	l0,0c0,0.1,0,0.1-0.1,0.2L742.9,31.6z M787.8-13.8l-38.7,38.7l-1.3-1.3l38.7-38.7c0.3-0.3,0.9-0.3,1.3,0c0.2,0.2,0.3,0.4,0.3,0.6
	C788-14.2,787.9-14,787.8-13.8z"/>
<path class="st0" d="M617.8,38.7l48.8-48.8c1.1-1.1,1.1-3,0-4.1s-3-1.1-4.1,0l-48.8,48.8c-0.5,0.1-0.9,0.3-1.3,0.6l-4.3,4.3
	l-9.7-9.7c-0.4-0.4-1-0.4-1.4,0c-0.3,0.3-0.3,0.6-0.2,1l-5.2,5.2c-0.2,0.2-0.2,0.5,0,0.7c0.1,0.1,0.2,0.1,0.4,0.1s0.3,0,0.4-0.1
	l5.1-5.1l1.7,1.7l-5.1,5.1c-0.2,0.2-0.2,0.5,0,0.7c0.1,0.1,0.2,0.1,0.4,0.1s0.3,0,0.4-0.1L600,34l1.7,1.7l-5.1,5.1
	c-0.2,0.2-0.2,0.5,0,0.7c0.1,0.1,0.2,0.1,0.4,0.1s0.3,0,0.4-0.1l5.1-5.1l1.7,1.7l-5.1,5.1c-0.2,0.2-0.2,0.5,0,0.7
	c0.1,0.1,0.2,0.1,0.4,0.1c0.1,0,0.3,0,0.4-0.1l5.1-5.1l1.7,1.7l-5.1,5.1c-0.2,0.2-0.2,0.5,0,0.7c0.1,0.1,0.2,0.1,0.4,0.1
	c0.1,0,0.3,0,0.4-0.1l5.1-5.1l1.7,1.7l-5.1,5.1c-0.2,0.2-0.2,0.5,0,0.7c0.1,0.1,0.2,0.1,0.4,0.1c0.1,0,0.3,0,0.4-0.1l5.1-5.1
	l1.7,1.7l-5.1,5.1c-0.2,0.2-0.2,0.5,0,0.7c0.1,0.1,0.2,0.1,0.4,0.1s0.3,0,0.4-0.1l5.1-5.1l1.7,1.7l-5.1,5.1c-0.2,0.2-0.2,0.5,0,0.7
	c0.1,0.1,0.2,0.1,0.4,0.1c0.1,0,0.3,0,0.4-0.1l5.1-5.1l1.7,1.7l-5.1,5.1c-0.2,0.2-0.2,0.5,0,0.7c0.1,0.1,0.2,0.1,0.4,0.1
	s0.3,0,0.4-0.1l5.1-5.1l1.7,1.7l-5.1,5.1c-0.2,0.2-0.2,0.5,0,0.7c0.1,0.1,0.2,0.1,0.4,0.1s0.3,0,0.4-0.1l5.1-5.1l1.7,1.7l-5.1,5.1
	c-0.2,0.2-0.2,0.5,0,0.7c0.1,0.1,0.2,0.1,0.4,0.1s0.3,0,0.4-0.1l5.2-5.2c0.1,0,0.2,0,0.2,0c0.3,0,0.5-0.1,0.7-0.3
	c0.4-0.4,0.4-1,0-1.4l-9.7-9.7l4.3-4.3C617.5,39.7,617.7,39.2,617.8,38.7z M615.7,38.6l-4.3,4.3l-1.9-1.9l4.3-4.3
	c0.1-0.1,0.1-0.1,0.1-0.1h0.1c0.1,0,0.2,0,0.2,0.1l1.4,1.4l0.1,0.1v0.1l0,0C615.8,38.4,615.8,38.5,615.7,38.6z M615.8,35.4
	l48.1-48.1c0.3-0.3,0.9-0.3,1.3,0c0.3,0.3,0.3,0.9,0,1.3l-48.2,48L615.8,35.4z"/>
<path class="st0" d="M-300.1-4.4h-8.4v-3.5c0-1.5-1.3-2.8-2.8-2.8s-2.8,1.3-2.8,2.8v3.5h-33.6v-3.5c0-1.5-1.3-2.8-2.8-2.8
	s-2.8,1.3-2.8,2.8v3.5h-8.4c-3.1,0-5.6,2.5-5.6,5.6v50.4c0,3.1,2.5,5.6,5.6,5.6h61.6c3.1,0,5.6-2.5,5.6-5.6V1.2
	C-294.5-1.9-297-4.4-300.1-4.4z M-350.5,48.8h-5.6v-5.6h5.6V48.8z M-350.5,37.6h-5.6V32h5.6V37.6z M-339.3,48.8h-5.6v-5.6h5.6V48.8z
	 M-339.3,37.6h-5.6V32h5.6V37.6z M-339.3,26.4h-5.6v-5.6h5.6V26.4z M-328.1,48.8h-5.6v-5.6h5.6V48.8z M-328.1,37.6h-5.6V32h5.6V37.6
	z M-328.1,26.4h-5.6v-5.6h5.6V26.4z M-316.9,48.8h-5.6v-5.6h5.6V48.8z M-316.9,37.6h-5.6V32h5.6V37.6z M-316.9,26.4h-5.6v-5.6h5.6
	V26.4z M-305.7,37.6h-5.6V32h5.6V37.6z M-305.7,26.4h-5.6v-5.6h5.6V26.4z M-299.8,15.2H-362V9.6h62.2V15.2z"/>
<path class="st0" d="M-180.1-4.4h-8.4v-3.5c0-1.5-1.3-2.8-2.8-2.8s-2.8,1.3-2.8,2.8v3.5h-33.6v-3.5c0-1.5-1.3-2.8-2.8-2.8
	s-2.8,1.3-2.8,2.8v3.5h-8.4c-3.1,0-5.6,2.5-5.6,5.6v50.4c0,3.1,2.5,5.6,5.6,5.6h61.6c3.1,0,5.6-2.5,5.6-5.6V1.2
	C-174.5-1.9-177-4.4-180.1-4.4z M-233.3,48.8c-1.5,0-2.8-1.3-2.8-2.8s1.3-2.8,2.8-2.8s2.8,1.3,2.8,2.8S-231.7,48.8-233.3,48.8z
	 M-233.3,37.6c-1.5,0-2.8-1.3-2.8-2.8s1.3-2.8,2.8-2.8s2.8,1.3,2.8,2.8C-230.5,36.4-231.7,37.6-233.3,37.6z M-222.1,48.8
	c-1.5,0-2.8-1.3-2.8-2.8s1.3-2.8,2.8-2.8s2.8,1.3,2.8,2.8S-220.5,48.8-222.1,48.8z M-222.1,37.6c-1.5,0-2.8-1.3-2.8-2.8
	s1.3-2.8,2.8-2.8s2.8,1.3,2.8,2.8S-220.5,37.6-222.1,37.6z M-222.1,26.4c-1.5,0-2.8-1.3-2.8-2.8s1.3-2.8,2.8-2.8s2.8,1.3,2.8,2.8
	S-220.5,26.4-222.1,26.4z M-210.9,48.8c-1.5,0-2.8-1.3-2.8-2.8s1.3-2.8,2.8-2.8s2.8,1.3,2.8,2.8S-209.3,48.8-210.9,48.8z
	 M-210.9,37.6c-1.5,0-2.8-1.3-2.8-2.8s1.3-2.8,2.8-2.8s2.8,1.3,2.8,2.8S-209.3,37.6-210.9,37.6z M-210.9,26.4
	c-1.5,0-2.8-1.3-2.8-2.8s1.3-2.8,2.8-2.8s2.8,1.3,2.8,2.8S-209.3,26.4-210.9,26.4z M-199.7,48.8c-1.5,0-2.8-1.3-2.8-2.8
	s1.3-2.8,2.8-2.8s2.8,1.3,2.8,2.8S-198.1,48.8-199.7,48.8z M-199.7,37.6c-1.5,0-2.8-1.3-2.8-2.8s1.3-2.8,2.8-2.8s2.8,1.3,2.8,2.8
	S-198.1,37.6-199.7,37.6z M-199.7,26.4c-1.5,0-2.8-1.3-2.8-2.8s1.3-2.8,2.8-2.8s2.8,1.3,2.8,2.8S-198.1,26.4-199.7,26.4z
	 M-188.5,37.6c-1.5,0-2.8-1.3-2.8-2.8s1.3-2.8,2.8-2.8s2.8,1.3,2.8,2.8S-186.9,37.6-188.5,37.6z M-188.5,26.4
	c-1.5,0-2.8-1.3-2.8-2.8s1.3-2.8,2.8-2.8s2.8,1.3,2.8,2.8S-186.9,26.4-188.5,26.4z M-182.6,15.2h-56.6c-1.5,0-2.8-1.3-2.8-2.8
	s1.3-2.8,2.8-2.8h56.6c1.5,0,2.8,1.3,2.8,2.8S-181.1,15.2-182.6,15.2z"/>
<path class="st0" d="M-61.1,23.3h-2.7c0-14.9-12.1-27.1-27.1-27.1l0,0l0,0c-14.9,0-27.1,12.1-27.1,27.1h-2.7
	c-7.5,0-13.5,6.1-13.5,13.5s6.1,13.5,13.5,13.5h29.8l0,0l0,0h29.8c7.5,0,13.5-6.1,13.5-13.5S-53.6,23.3-61.1,23.3z"/>
<g>
	<path class="st0" d="M21.6,46.6c-1.1,0-2.2-0.5-3.1-1.3L1.3,28c-1.7-1.7-1.7-4.4,0-6.1s4.4-1.7,6.1,0l14,14L50.6,1.5
		c1.5-1.8,4.3-2,6.1-0.5s2,4.3,0.5,6.1L24.9,45c-0.8,0.9-1.9,1.5-3.1,1.5C21.7,46.6,21.7,46.6,21.6,46.6z"/>
</g>
<g>
	<path class="st0" d="M117.3-1.3l31.8,26.5l31.8-26.5c0.2-0.2,0.4-0.3,0.7-0.4c-0.5-0.2-1.1-0.3-1.7-0.3h-61.6
		c-0.6,0-1.1,0.1-1.7,0.3C116.9-1.6,117.1-1.4,117.3-1.3z"/>
	<path class="st0" d="M113.7,43.6l23.6-21L113.7,3c-0.3-0.3-0.6-0.6-0.8-1c-0.2,0.5-0.3,1.1-0.3,1.7v39.2c0,0.6,0.1,1.1,0.3,1.7
		C113.1,44.2,113.4,43.9,113.7,43.6z"/>
	<path class="st0" d="M180.9,47.8l-24.2-21.5l-5.7,4.8c-0.5,0.4-1.2,0.6-1.8,0.6s-1.3-0.2-1.8-0.6l-5.7-4.8l-24.2,21.5
		c-0.2,0.2-0.5,0.3-0.7,0.5c0.5,0.2,1.1,0.3,1.7,0.3h61.6c0.6,0,1.1-0.1,1.7-0.3C181.3,48.1,181.1,48,180.9,47.8z"/>
	<path class="st0" d="M185.3,2c-0.2,0.4-0.4,0.7-0.8,1L161,22.6l23.6,21c0.3,0.3,0.5,0.6,0.7,0.9c0.2-0.5,0.3-1.1,0.3-1.7V3.7
		C185.5,3.1,185.4,2.5,185.3,2z"/>
</g>
<g>
	<path class="st0" d="M261.8,36.6h40.6c3.1,0,5.6-2.5,5.6-5.6V-1.2c0-3.1-2.5-5.6-5.6-5.6h-66.5c-3.1,0-5.6,2.5-5.6,5.6V31
		c0,3.1,2.5,5.6,5.6,5.6h9.1v16.8L261.8,36.6z"/>
</g>
<path class="st0" d="M424.8,52l-13-13c-1.2-1.2-2.8-1.6-4.3-1.4l-4.3-4.3c4.1-5,6.6-11.4,6.6-18.3c0-15.9-12.9-28.8-28.8-28.8
	S352-0.9,352,15s12.9,28.8,28.8,28.8c6.9,0,13.3-2.5,18.3-6.6l4.3,4.3c-0.3,1.5,0.2,3.1,1.4,4.3l13,13c1,1,2.2,1.4,3.5,1.4
	s2.5-0.5,3.5-1.4C426.7,57,426.7,53.9,424.8,52z M380.9,38.3c-12.8,0-23.2-10.4-23.2-23.2s10.4-23.2,23.2-23.2
	c12.8,0,23.2,10.4,23.2,23.2C404.1,27.8,393.7,38.3,380.9,38.3z"/>
<path class="st0" d="M540.4-2.5c-1.1,0-1.9,0.9-1.9,2c0,15.6-12.7,28.2-28.2,28.2h-27.8l14.2-14.2c0.8-0.8,0.8-2,0-2.8s-2-0.8-2.8,0
	l-17.5,17.5c-0.4,0.4-0.6,0.9-0.6,1.4s0.2,1,0.6,1.4l17.5,17.5c0.4,0.4,0.9,0.6,1.4,0.6s1-0.2,1.4-0.6c0.8-0.8,0.8-2,0-2.8
	l-14.1-14.2h27.8c17.7,0,32.1-14.4,32.1-32.1C542.4-1.6,541.5-2.5,540.4-2.5z"/>
<text transform="matrix(1 0 0 1 -20.8787 88.2763)" style="font-family:'HelveticaNeue-Bold'; font-size:5px;">Created by lipi</text>
<text transform="matrix(1 0 0 1 -20.8787 93.2763)" style="font-family:'HelveticaNeue-Bold'; font-size:5px;">from the Noun Project</text>
</svg>
